# Blender v2.92.0 OBJ File: 'graveyard2.blend'
# www.blender.org
mtllib Chair.mtl
o Cube.002_Cube.010
v 26.984184 11.777890 -49.616299
v 26.942318 11.777890 -49.658165
v 26.942318 11.964948 -49.658165
v 26.984184 11.964948 -49.616299
v 26.942318 11.777890 -51.574432
v 26.942318 11.964948 -51.574432
v 28.942318 11.777890 -49.658165
v 28.900452 11.777890 -49.616299
v 28.900452 11.964948 -49.616299
v 28.942318 11.964948 -49.658165
v 28.942318 11.777890 -51.574432
v 28.942318 11.964948 -51.574432
v 28.887758 13.852565 -51.721413
v 28.900452 13.851460 -51.734047
v 28.887758 13.853064 -51.731827
v 28.887758 13.842120 -51.878578
v 28.887758 13.843995 -51.868298
v 28.900452 13.842697 -51.865917
v 26.996878 13.842120 -51.878578
v 26.984184 13.842697 -51.865917
v 26.996878 13.843995 -51.868298
v 26.996878 13.852565 -51.721413
v 26.996878 13.853064 -51.731827
v 26.984184 13.851460 -51.734047
v 28.887758 11.964948 -51.773811
v 28.900452 11.964948 -51.761116
v 28.887758 11.777890 -51.761116
v 28.887758 11.779078 -51.773811
v 28.900452 11.779078 -51.761116
v 26.984184 11.779078 -51.761116
v 26.996878 11.779078 -51.773811
v 26.996878 11.777890 -51.761116
v 26.984184 11.964948 -51.761116
v 26.996878 11.964948 -51.773811
v 26.984184 11.779078 -51.616299
v 26.996878 11.777890 -51.616299
v 26.975208 11.777890 -51.607323
v 26.996878 11.964948 -51.616299
v 26.984184 11.964948 -51.628994
v 26.984184 11.963760 -51.616299
v 26.975208 11.964948 -51.607323
v 28.887758 11.777890 -51.616299
v 28.900452 11.779078 -51.616299
v 28.909428 11.777890 -51.607323
v 28.900452 11.964948 -51.628994
v 28.887758 11.964948 -51.616299
v 28.909428 11.964948 -51.607323
v 28.900452 11.963760 -51.616299
v 27.014404 10.440903 -49.664757
v 26.996098 11.905632 -49.646450
v 27.014404 10.440903 -49.850956
v 26.996098 11.905632 -49.869267
v 27.200603 10.440903 -49.664757
v 27.218912 11.905632 -49.646450
v 27.200603 10.440903 -49.850956
v 27.218912 11.905632 -49.869267
v 28.870232 10.440903 -49.664757
v 28.888538 11.905632 -49.646450
v 28.870232 10.440903 -49.850956
v 28.888538 11.905632 -49.869267
v 28.684032 10.440903 -49.664757
v 28.665724 11.905632 -49.646450
v 28.684032 10.440903 -49.850956
v 28.665724 11.905632 -49.869267
v 27.014404 10.440903 -51.567841
v 26.996098 11.905632 -51.586147
v 27.014404 10.440903 -51.381641
v 26.996098 11.905632 -51.363331
v 27.200603 10.440903 -51.567841
v 27.218912 11.905632 -51.586147
v 27.200603 10.440903 -51.381641
v 27.218912 11.905632 -51.363331
v 28.870232 10.440903 -51.567841
v 28.888538 11.905632 -51.586147
v 28.870232 10.440903 -51.381641
v 28.888538 11.905632 -51.363331
v 28.684032 10.440903 -51.567841
v 28.665724 11.905632 -51.586147
v 28.684032 10.440903 -51.381641
v 28.665724 11.905632 -51.363331
vt 0.375000 0.755233
vt 0.625000 0.755233
vt 0.625000 0.994767
vt 0.375000 0.994767
vt 0.375000 0.505233
vt 0.625000 0.505233
vt 0.625000 0.744767
vt 0.375000 0.744767
vt 0.368180 0.500000
vt 0.131820 0.500000
vt 0.131820 0.500000
vt 0.368180 0.500000
vt 0.375000 0.497011
vt 0.376587 0.494767
vt 0.623413 0.494767
vt 0.625000 0.497011
vt 0.375000 0.005233
vt 0.625000 0.005233
vt 0.625000 0.244767
vt 0.375000 0.244767
vt 0.376587 0.256820
vt 0.625000 0.256820
vt 0.625000 0.493180
vt 0.376587 0.493180
vt 0.375000 0.000000
vt 0.625000 0.000000
vt 0.125000 0.505233
vt 0.129111 0.501122
vt 0.370889 0.501122
vt 0.369767 0.750000
vt 0.130233 0.750000
vt 0.125000 0.744767
vt 0.629111 0.501122
vt 0.631820 0.500000
vt 0.868180 0.500000
vt 0.870889 0.501122
vt 0.875000 0.505233
vt 0.875000 0.744767
vt 0.869767 0.750000
vt 0.630233 0.750000
vt 0.625000 0.252989
vt 0.623413 0.255233
vt 0.376587 0.255233
vt 0.375000 0.252989
vt 0.625000 0.494767
vt 0.376587 0.494767
vt 0.625000 0.494767
vt 0.625000 0.255233
vt 0.625000 0.255233
vt 0.376587 0.255233
vt 0.625000 0.494767
vt 0.625000 0.494767
vt 0.625000 0.256820
vt 0.625000 0.493180
vt 0.868180 0.500000
vt 0.631820 0.500000
vt 0.631820 0.500000
vt 0.868180 0.500000
vt 0.625000 0.255233
vt 0.625000 0.255233
vt 0.631820 0.500000
vt 0.630233 0.500000
vt 0.631820 0.500000
vt 0.630233 0.500000
vt 0.630233 0.500000
vt 0.625000 0.256820
vt 0.868180 0.500000
vt 0.869767 0.500000
vt 0.869767 0.500000
vt 0.368180 0.500000
vt 0.369767 0.500000
vt 0.376587 0.255233
vt 0.375000 0.255233
vt 0.130233 0.500000
vt 0.625000 0.255233
vt 0.625000 0.255233
vt 0.625000 0.255233
vt 0.369767 0.500000
vt 0.369767 0.500000
vt 0.630233 0.498413
vt 0.630233 0.500000
vt 0.868180 0.500000
vt 0.869767 0.500000
vt 0.131820 0.500000
vt 0.130233 0.500000
vt 0.625000 0.255233
vt 0.630233 0.500000
vt 0.375000 0.000000
vt 0.625000 0.000000
vt 0.625000 0.250000
vt 0.375000 0.250000
vt 0.625000 0.500000
vt 0.375000 0.500000
vt 0.625000 0.750000
vt 0.375000 0.750000
vt 0.625000 1.000000
vt 0.375000 1.000000
vt 0.125000 0.500000
vt 0.125000 0.750000
vt 0.875000 0.500000
vt 0.875000 0.750000
vt 0.375000 0.000000
vt 0.375000 0.250000
vt 0.625000 0.250000
vt 0.625000 0.000000
vt 0.375000 0.500000
vt 0.625000 0.500000
vt 0.375000 0.750000
vt 0.625000 0.750000
vt 0.375000 1.000000
vt 0.625000 1.000000
vt 0.125000 0.500000
vt 0.125000 0.750000
vt 0.875000 0.750000
vt 0.875000 0.500000
vt 0.375000 0.000000
vt 0.375000 0.250000
vt 0.625000 0.250000
vt 0.625000 0.000000
vt 0.375000 0.500000
vt 0.625000 0.500000
vt 0.375000 0.750000
vt 0.625000 0.750000
vt 0.375000 1.000000
vt 0.625000 1.000000
vt 0.125000 0.500000
vt 0.125000 0.750000
vt 0.875000 0.750000
vt 0.875000 0.500000
vt 0.375000 0.000000
vt 0.625000 0.000000
vt 0.625000 0.250000
vt 0.375000 0.250000
vt 0.625000 0.500000
vt 0.375000 0.500000
vt 0.625000 0.750000
vt 0.375000 0.750000
vt 0.625000 1.000000
vt 0.375000 1.000000
vt 0.125000 0.500000
vt 0.125000 0.750000
vt 0.875000 0.500000
vt 0.875000 0.750000
vn 0.0000 0.0000 1.0000
vn 1.0000 0.0000 0.0000
vn 0.0000 -1.0000 0.0000
vn 0.7072 0.0000 -0.7071
vn -1.0000 0.0000 0.0000
vn 0.0000 0.0000 -1.0000
vn -0.7071 0.0000 0.7071
vn 0.7071 0.0000 0.7071
vn 0.0000 1.0000 -0.0000
vn -0.7072 0.0000 -0.7070
vn 0.0000 -0.0557 -0.9984
vn 0.0000 0.9978 -0.0663
vn 0.1334 0.9899 0.0475
vn 0.1330 0.9751 -0.1777
vn -0.1330 0.9751 -0.1777
vn -0.1334 0.9899 0.0475
vn 0.0927 -0.9914 -0.0926
vn -0.0927 -0.9914 -0.0926
vn -0.0909 -0.9713 -0.2196
vn -0.0931 0.9949 -0.0385
vn 0.0909 -0.9713 -0.2196
vn 0.0931 0.9949 -0.0385
vn 0.0000 0.9989 0.0478
vn 0.0000 0.9838 -0.1794
vn -0.1137 0.9913 -0.0659
vn 0.0931 -0.9957 0.0000
vn -0.7071 0.0000 -0.7071
vn 0.7071 0.0000 -0.7071
vn 0.0000 -0.9957 -0.0931
vn 0.1137 0.9913 -0.0659
vn -0.0931 -0.9957 0.0000
vn -0.7066 0.0393 0.7065
vn -0.7066 -0.0394 -0.7065
vn 0.7066 -0.0394 -0.7065
vn 0.7066 0.0393 0.7065
vn 0.0000 0.0556 0.9985
vn -0.9999 -0.0125 0.0000
vn 0.0000 -0.0125 -0.9999
vn 0.9999 -0.0125 0.0000
vn 0.0000 -0.0125 0.9999
usemtl None
s off
f 8/1/1 9/2/1 4/3/1 1/4/1
f 11/5/2 12/6/2 10/7/2 7/8/2
f 42/9/3 36/10/3 32/11/3 27/12/3
f 12/6/4 11/5/4 44/13/4 43/14/4 48/15/4 47/16/4
f 2/17/5 3/18/5 6/19/5 5/20/5
f 31/21/6 34/22/6 25/23/6 28/24/6
f 1/25/7 4/26/7 3/18/7 2/17/7
f 5/27/3 37/28/3 36/10/3 42/9/3 44/29/3 11/5/3 7/8/3 8/30/3 1/31/3 2/32/3
f 9/2/8 8/1/8 7/8/8 10/7/8
f 12/6/9 47/33/9 46/34/9 38/35/9 41/36/9 6/37/9 3/38/9 4/39/9 9/40/9 10/7/9
f 41/41/10 40/42/10 35/43/10 37/44/10 5/20/10 6/19/10
f 45/45/2 48/15/2 43/14/2 29/46/2 26/47/2
f 35/43/5 40/42/5 39/48/5 33/49/5 30/50/5
f 45/45/2 26/47/2 18/51/2 14/52/2
f 25/23/11 34/22/11 19/53/11 16/54/11
f 23/55/12 15/56/12 17/57/12 21/58/12
f 33/49/5 39/48/5 24/59/5 20/60/5
f 13/61/13 14/62/13 15/56/13
f 16/63/14 17/64/14 18/65/14
f 19/53/15 20/60/15 21/66/15
f 22/67/16 23/68/16 24/69/16
f 27/12/17 28/70/17 29/71/17
f 30/50/18 31/72/18 32/73/18
f 35/74/19 36/10/19 37/28/19
f 38/75/20 39/48/20 40/76/20 41/77/20
f 42/9/21 43/78/21 44/79/21
f 45/80/22 46/34/22 47/33/22 48/81/22
f 15/56/23 23/55/23 22/67/23 13/61/23
f 16/63/24 19/82/24 21/58/24 17/57/24
f 23/55/25 21/58/25 20/83/25 24/69/25
f 42/9/26 27/12/26 29/71/26 43/78/26
f 34/22/27 31/21/27 30/50/27 33/49/27
f 28/24/28 25/23/28 26/47/28 29/46/28
f 31/84/29 28/70/29 27/12/29 32/11/29
f 17/57/30 15/56/30 14/62/30 18/65/30
f 32/11/31 36/10/31 35/74/31 30/85/31
f 38/75/32 22/86/32 24/59/32 39/48/32
f 19/53/33 34/22/33 33/49/33 20/60/33
f 25/23/34 16/54/34 18/51/34 26/47/34
f 13/61/35 46/34/35 45/87/35 14/62/35
f 38/35/36 46/34/36 13/61/36 22/67/36
f 49/88/37 50/89/37 52/90/37 51/91/37
f 51/91/38 52/90/38 56/92/38 55/93/38
f 55/93/39 56/92/39 54/94/39 53/95/39
f 53/95/40 54/94/40 50/96/40 49/97/40
f 51/98/3 55/93/3 53/95/3 49/99/3
f 56/92/9 52/100/9 50/101/9 54/94/9
f 57/102/39 59/103/39 60/104/39 58/105/39
f 59/103/38 63/106/38 64/107/38 60/104/38
f 63/106/37 61/108/37 62/109/37 64/107/37
f 61/108/40 57/110/40 58/111/40 62/109/40
f 59/112/3 57/113/3 61/108/3 63/106/3
f 64/107/9 62/109/9 58/114/9 60/115/9
f 65/116/37 67/117/37 68/118/37 66/119/37
f 67/117/40 71/120/40 72/121/40 68/118/40
f 71/120/39 69/122/39 70/123/39 72/121/39
f 69/122/38 65/124/38 66/125/38 70/123/38
f 67/126/3 65/127/3 69/122/3 71/120/3
f 72/121/9 70/123/9 66/128/9 68/129/9
f 73/130/39 74/131/39 76/132/39 75/133/39
f 75/133/40 76/132/40 80/134/40 79/135/40
f 79/135/37 80/134/37 78/136/37 77/137/37
f 77/137/38 78/136/38 74/138/38 73/139/38
f 75/140/3 79/135/3 77/137/3 73/141/3
f 80/134/9 76/142/9 74/143/9 78/136/9
