# Blender v2.92.0 OBJ File: 'graveyard2.blend'
# www.blender.org
mtllib Container.mtl
o Cube.097_Cube.115
v 10.224312 1.029905 72.515709
v 10.188560 6.662446 72.520241
v 25.567257 6.767658 63.087311
v 25.603010 1.135117 63.082779
v 7.101559 0.669981 67.420609
v 7.061436 6.990899 67.425697
v 22.440134 7.096111 57.992764
v 22.480257 0.775193 57.987675
v 7.243580 6.647616 67.718819
v 22.622278 6.752830 58.285885
v 25.785154 0.791834 63.375900
v 25.745031 7.112752 63.380989
v 10.366333 7.007540 72.813919
v 10.406456 0.686622 72.808838
v 7.279331 1.015076 67.714287
v 22.658031 1.120289 58.281353
vt 0.388613 0.013613
vt 0.611387 0.013613
vt 0.611387 0.736387
vt 0.388613 0.736387
vt 0.375000 0.250000
vt 0.625000 0.250000
vt 0.625000 0.500000
vt 0.375000 0.500000
vt 0.611387 0.236387
vt 0.611387 0.513613
vt 0.375000 0.750000
vt 0.625000 0.750000
vt 0.625000 1.000000
vt 0.375000 1.000000
vt 0.125000 0.500000
vt 0.125000 0.750000
vt 0.875000 0.500000
vt 0.875000 0.750000
vt 0.388613 0.236387
vt 0.375000 0.000000
vt 0.625000 0.000000
vt 0.388613 0.513613
vn -0.5228 -0.0026 -0.8524
vn 0.0063 -1.0000 -0.0008
vn 0.5228 0.0026 0.8524
vn -0.0063 1.0000 0.0008
vn -0.8524 -0.0058 0.5228
vn -0.8524 -0.0058 0.5229
vn 0.8524 0.0058 -0.5229
vn 0.8524 0.0058 -0.5228
usemtl None.005
s off
f 1/1/1 2/2/1 3/3/1 4/4/1
f 5/5/1 6/6/1 7/7/1 8/8/1
f 2/2/2 9/9/2 10/10/2 3/3/2
f 11/11/3 12/12/3 13/13/3 14/14/3
f 5/15/2 8/8/2 11/11/2 14/16/2
f 7/7/4 6/17/4 13/18/4 12/12/4
f 1/1/5 15/19/5 5/5/5 14/20/5
f 2/2/6 1/1/6 14/20/6 13/21/6
f 9/9/5 2/2/5 13/21/5 6/6/5
f 15/19/6 9/9/6 6/6/6 5/5/6
f 10/10/7 16/22/7 8/8/7 7/7/7
f 16/22/8 4/4/8 11/11/8 8/8/8
f 3/3/8 10/10/8 7/7/8 12/12/8
f 4/4/8 3/3/8 12/12/8 11/11/8
f 15/19/4 1/1/4 4/4/4 16/22/4
f 15/19/3 16/22/3 10/10/3 9/9/3
