# Blender v2.92.0 OBJ File: 'graveyard2.blend'
# www.blender.org
mtllib House_roof.mtl
o Cube.001_Cube.002
v -43.238098 28.997532 -5.623573
v -43.232464 29.005470 -5.412361
v -43.578548 29.005470 -5.627068
v -30.293037 47.395882 -13.439781
v -30.287498 47.403816 -13.657923
v -30.639124 47.395882 -13.654488
v -43.238098 28.997532 -59.272041
v -43.578552 29.005470 -59.268547
v -43.232464 29.005470 -59.483253
v -30.287498 47.403816 -51.237694
v -30.293037 47.395882 -51.455837
v -30.639124 47.395882 -51.241131
v 43.238098 28.997532 -5.623573
v 43.578552 29.005470 -5.627068
v 43.232464 29.005470 -5.412363
v 30.287498 47.403816 -13.657923
v 30.293037 47.395882 -13.439781
v 30.639124 47.395882 -13.654488
v 43.238098 28.997532 -59.272041
v 43.232464 29.005470 -59.483253
v 43.578548 29.005470 -59.268547
v 30.287498 47.403816 -51.237694
v 30.639124 47.395882 -51.241131
v 30.293037 47.395882 -51.455837
vt 0.375108 0.751002
vt 0.624892 0.751399
vt 0.624892 0.998601
vt 0.375108 0.998999
vt 0.375108 0.501001
vt 0.624892 0.501399
vt 0.624892 0.748601
vt 0.375108 0.748999
vt 0.626412 0.501412
vt 0.873588 0.501412
vt 0.873588 0.748588
vt 0.626412 0.748588
vt 0.375108 0.001001
vt 0.624892 0.001399
vt 0.624892 0.248601
vt 0.375108 0.248999
vt 0.375108 0.251001
vt 0.624892 0.251399
vt 0.624892 0.498601
vt 0.375108 0.498999
vt 0.125992 0.749008
vt 0.126009 0.750000
vt 0.125000 0.748991
vt 0.625000 0.998588
vt 0.624894 1.000000
vt 0.125992 0.500992
vt 0.125000 0.501009
vt 0.126009 0.500000
vt 0.625002 0.251412
vt 0.625000 0.251389
vt 0.624894 0.250000
vt 0.374008 0.749008
vt 0.375000 0.748991
vt 0.373991 0.750000
vt 0.625002 0.751412
vt 0.625000 0.751389
vt 0.624894 0.750000
vt 0.374008 0.500992
vt 0.373991 0.500000
vt 0.375000 0.501009
vt 0.625002 0.501412
vt 0.625000 0.501389
vt 0.624894 0.500000
vt 0.375110 0.000000
vt 0.624894 0.000000
vt 0.625000 0.001412
vt 0.625000 0.248588
vt 0.625000 0.498588
vn 0.0000 0.4000 0.9165
vn 0.8178 0.5754 -0.0000
vn 0.0000 1.0000 0.0000
vn -0.8178 0.5754 0.0000
vn 0.0000 0.4000 -0.9165
vn -0.0237 -0.9990 0.0382
vn -0.0222 0.9991 0.0358
vn -0.0237 -0.9990 -0.0382
vn -0.0222 0.9991 -0.0358
vn 0.0237 -0.9990 0.0382
vn 0.0222 0.9991 0.0358
vn 0.0237 -0.9990 -0.0382
vn 0.0222 0.9991 -0.0358
vn -0.0233 -0.9997 0.0000
vn -0.4234 0.5958 0.6825
vn -0.0226 0.9997 0.0000
vn -0.4234 0.5958 -0.6825
vn 0.0000 -0.9993 -0.0375
vn 0.0000 0.9993 -0.0363
vn 0.4234 0.5958 -0.6825
vn 0.0233 -0.9997 -0.0000
vn 0.0226 0.9997 0.0000
vn 0.4234 0.5958 0.6825
vn 0.0000 -0.9993 0.0375
vn 0.0000 0.9993 0.0363
vn 0.0000 -1.0000 0.0000
usemtl None
s off
f 15/1/1 17/2/1 4/3/1 2/4/1
f 21/5/2 23/6/2 18/7/2 14/8/2
f 22/9/3 10/10/3 5/11/3 16/12/3
f 3/13/4 6/14/4 12/15/4 8/16/4
f 9/17/5 11/18/5 24/19/5 20/20/5
f 1/21/6 2/22/6 3/23/6
f 4/3/7 5/24/7 6/25/7
f 7/26/8 8/27/8 9/28/8
f 10/29/9 11/30/9 12/31/9
f 13/32/10 14/33/10 15/34/10
f 16/35/11 17/36/11 18/37/11
f 19/38/12 20/39/12 21/40/12
f 22/41/13 23/42/13 24/43/13
f 7/26/14 1/21/14 3/23/14 8/27/14
f 2/44/15 4/45/15 6/14/15 3/13/15
f 5/46/16 10/47/16 12/15/16 6/14/16
f 11/18/17 9/17/17 8/16/17 12/15/17
f 19/38/18 7/26/18 9/28/18 20/39/18
f 10/29/19 22/48/19 24/19/19 11/18/19
f 23/6/20 21/5/20 20/20/20 24/19/20
f 13/32/21 19/38/21 21/5/21 14/8/21
f 22/9/22 16/12/22 18/7/22 23/6/22
f 17/2/23 15/1/23 14/8/23 18/7/23
f 1/21/24 13/32/24 15/34/24 2/22/24
f 16/35/25 5/24/25 4/3/25 17/2/25
f 7/26/26 19/38/26 13/32/26 1/21/26
