# Blender v2.92.0 OBJ File: 'graveyard2.blend'
# www.blender.org
mtllib ruins.mtl
o Cube.060_Cube.114
v 42.311802 0.640536 93.358887
v 42.311222 0.987359 93.372559
v 46.504200 1.088948 90.972664
v 46.504780 0.742126 90.959000
v 47.498360 1.022267 92.706787
v 47.498940 0.675444 92.693115
v 43.305386 0.920676 95.106689
v 43.305965 0.573853 95.093018
v 37.035141 0.586854 102.426056
v 37.018227 0.922703 102.512039
v 36.707344 2.103998 97.836700
v 36.724258 1.768150 97.750717
v 38.700821 2.230175 97.736023
v 38.717735 1.894327 97.650040
v 39.011703 1.048879 102.411362
v 39.028618 0.713031 102.325378
v 35.691082 0.627642 98.840866
v 35.690502 0.974465 98.854538
v 39.883480 1.076054 96.454636
v 39.884060 0.729232 96.440971
v 40.877644 1.009373 98.188766
v 40.878223 0.662550 98.175095
v 36.684666 0.907782 100.588661
v 36.685246 0.560960 100.574997
v 31.961857 0.644671 100.826073
v 31.950863 0.991233 100.841812
v 38.395866 1.360313 97.216461
v 38.406860 1.013752 97.200722
v 39.378201 1.312393 98.957932
v 39.389194 0.965832 98.942192
v 32.933197 0.943313 102.583282
v 32.944191 0.596751 102.567551
v 34.400661 1.167365 98.632416
v 34.396957 1.541018 98.617661
v 26.364178 0.852557 83.203033
v 26.367882 0.478904 83.217789
v 36.922512 0.740195 77.705948
v 36.926216 0.366543 77.720711
v 44.955292 1.428656 93.120590
v 44.958996 1.055004 93.135345
vt 0.375000 0.000000
vt 0.625000 0.000000
vt 0.625000 0.250000
vt 0.375000 0.250000
vt 0.625000 0.500000
vt 0.375000 0.500000
vt 0.625000 0.750000
vt 0.375000 0.750000
vt 0.625000 1.000000
vt 0.375000 1.000000
vt 0.125000 0.500000
vt 0.125000 0.750000
vt 0.875000 0.500000
vt 0.875000 0.750000
vt 0.375000 0.000000
vt 0.625000 0.000000
vt 0.625000 0.250000
vt 0.375000 0.250000
vt 0.625000 0.500000
vt 0.375000 0.500000
vt 0.625000 0.750000
vt 0.375000 0.750000
vt 0.625000 1.000000
vt 0.375000 1.000000
vt 0.125000 0.500000
vt 0.125000 0.750000
vt 0.875000 0.500000
vt 0.875000 0.750000
vt 0.375000 0.000000
vt 0.625000 0.000000
vt 0.625000 0.250000
vt 0.375000 0.250000
vt 0.625000 0.500000
vt 0.375000 0.500000
vt 0.625000 0.750000
vt 0.375000 0.750000
vt 0.625000 1.000000
vt 0.375000 1.000000
vt 0.125000 0.500000
vt 0.125000 0.750000
vt 0.875000 0.500000
vt 0.875000 0.750000
vt 0.375000 0.000000
vt 0.625000 0.000000
vt 0.625000 0.250000
vt 0.375000 0.250000
vt 0.625000 0.500000
vt 0.375000 0.500000
vt 0.625000 0.750000
vt 0.375000 0.750000
vt 0.625000 1.000000
vt 0.375000 1.000000
vt 0.125000 0.500000
vt 0.125000 0.750000
vt 0.875000 0.500000
vt 0.875000 0.750000
vt 0.375000 0.000000
vt 0.625000 0.000000
vt 0.625000 0.250000
vt 0.375000 0.250000
vt 0.625000 0.500000
vt 0.375000 0.500000
vt 0.625000 0.750000
vt 0.375000 0.750000
vt 0.625000 1.000000
vt 0.375000 1.000000
vt 0.125000 0.500000
vt 0.125000 0.750000
vt 0.875000 0.500000
vt 0.875000 0.750000
vn -0.4971 0.0333 -0.8671
vn 0.8677 0.0210 -0.4966
vn 0.4971 -0.0333 0.8671
vn -0.8677 -0.0210 0.4966
vn 0.0017 -0.9992 -0.0394
vn -0.0017 0.9992 0.0394
vn -0.9967 -0.0631 0.0503
vn -0.0643 0.2445 -0.9675
vn 0.9967 0.0631 -0.0503
vn 0.0643 -0.2445 0.9675
vn 0.0487 -0.9676 -0.2477
vn -0.0487 0.9676 0.2477
vn -0.4912 0.0240 -0.8707
vn 0.8705 0.0499 -0.4897
vn 0.4912 -0.0240 0.8707
vn -0.8705 -0.0498 0.4897
vn 0.0317 -0.9985 -0.0453
vn -0.0317 0.9985 0.0453
vn -0.8869 0.0094 0.4618
vn -0.4618 -0.0396 -0.8861
vn 0.8869 -0.0095 -0.4618
vn 0.4618 0.0396 0.8861
vn 0.0099 -0.9992 0.0395
vn -0.0099 0.9992 -0.0395
usemtl None.004
s off
f 1/1/1 2/2/1 3/3/1 4/4/1
f 4/4/2 3/3/2 5/5/2 6/6/2
f 6/6/3 5/5/3 7/7/3 8/8/3
f 8/8/4 7/7/4 2/9/4 1/10/4
f 4/11/5 6/6/5 8/8/5 1/12/5
f 5/5/6 3/13/6 2/14/6 7/7/6
f 9/15/7 10/16/7 11/17/7 12/18/7
f 12/18/8 11/17/8 13/19/8 14/20/8
f 14/20/9 13/19/9 15/21/9 16/22/9
f 16/22/10 15/21/10 10/23/10 9/24/10
f 12/25/11 14/20/11 16/22/11 9/26/11
f 13/19/12 11/27/12 10/28/12 15/21/12
f 17/29/1 18/30/1 19/31/1 20/32/1
f 20/32/2 19/31/2 21/33/2 22/34/2
f 22/34/3 21/33/3 23/35/3 24/36/3
f 24/36/4 23/35/4 18/37/4 17/38/4
f 20/39/5 22/34/5 24/36/5 17/40/5
f 21/33/6 19/41/6 18/42/6 23/35/6
f 25/43/13 26/44/13 27/45/13 28/46/13
f 28/46/14 27/45/14 29/47/14 30/48/14
f 30/48/15 29/47/15 31/49/15 32/50/15
f 32/50/16 31/49/16 26/51/16 25/52/16
f 28/53/17 30/48/17 32/50/17 25/54/17
f 29/47/18 27/55/18 26/56/18 31/49/18
f 33/57/19 34/58/19 35/59/19 36/60/19
f 36/60/20 35/59/20 37/61/20 38/62/20
f 38/62/21 37/61/21 39/63/21 40/64/21
f 40/64/22 39/63/22 34/65/22 33/66/22
f 36/67/23 38/62/23 40/64/23 33/68/23
f 37/61/24 35/69/24 34/70/24 39/63/24
