# Blender v2.92.0 OBJ File: 'graveyard2.blend'
# www.blender.org
mtllib wall.mtl
o Cube_Cube.109
v 22.362026 -0.309455 85.249023
v 22.362028 5.391291 85.249023
v 21.215246 5.391291 85.249023
v 21.215244 -0.309455 85.249023
v 21.215244 -0.309455 74.044884
v 21.215246 5.391291 74.044884
v 21.215246 5.391291 72.961708
v 21.215244 -0.309455 72.961708
v 22.362028 5.391291 72.961708
v 22.362026 -0.309455 72.961708
v 22.362026 -0.309455 74.044884
v 22.362028 5.391291 74.044884
v 37.398170 -0.309457 72.961708
v 37.398170 -0.309457 74.044884
v 37.398170 5.391288 72.961708
v 37.398170 5.391288 74.044884
v 50.457726 0.014835 106.967484
v 50.457726 6.439857 106.967484
v 49.315041 6.439857 106.967484
v 49.315041 0.014835 106.967484
v 49.315041 0.014835 106.139748
v 49.315041 6.439857 106.139748
v 49.315041 6.439857 92.375572
v 49.315041 0.014835 92.375572
v 50.457726 6.439857 92.375572
v 50.457726 0.014835 92.375572
v 50.457726 0.014835 106.139748
v 50.457726 6.439857 106.139748
v 27.989340 6.439860 106.967484
v 27.989338 0.014838 106.967484
v 27.989340 6.439860 106.139748
v 27.989338 0.014838 106.139748
vt 0.375000 0.000000
vt 0.625000 0.000000
vt 0.625000 0.250000
vt 0.375000 0.250000
vt 0.375000 0.464385
vt 0.625000 0.464385
vt 0.625000 0.500000
vt 0.375000 0.500000
vt 0.625000 0.750000
vt 0.375000 0.750000
vt 0.375000 0.785615
vt 0.625000 0.785615
vt 0.625000 1.000000
vt 0.375000 1.000000
vt 0.339385 0.500000
vt 0.339385 0.750000
vt 0.660615 0.500000
vt 0.875000 0.500000
vt 0.875000 0.750000
vt 0.660615 0.750000
vt 0.125000 0.500000
vt 0.125000 0.750000
vt 0.375000 0.750000
vt 0.339385 0.750000
vt 0.625000 0.750000
vt 0.625000 0.785615
vt 0.375000 0.785615
vt 0.660615 0.750000
vt 0.375000 0.000000
vt 0.625000 0.000000
vt 0.625000 0.250000
vt 0.375000 0.250000
vt 0.375000 0.278309
vt 0.625000 0.278309
vt 0.625000 0.500000
vt 0.375000 0.500000
vt 0.625000 0.750000
vt 0.375000 0.750000
vt 0.375000 0.971691
vt 0.625000 0.971691
vt 0.625000 1.000000
vt 0.375000 1.000000
vt 0.153309 0.500000
vt 0.153309 0.750000
vt 0.846691 0.500000
vt 0.875000 0.500000
vt 0.875000 0.750000
vt 0.846691 0.750000
vt 0.125000 0.500000
vt 0.125000 0.750000
vt 0.625000 0.250000
vt 0.375000 0.250000
vt 0.625000 0.278309
vt 0.375000 0.278309
vt 0.125000 0.500000
vt 0.153309 0.500000
vt 0.846691 0.500000
vt 0.875000 0.500000
vn 0.0000 0.0000 1.0000
vn -1.0000 0.0000 0.0000
vn 0.0000 0.0000 -1.0000
vn 1.0000 -0.0000 0.0000
vn 0.0000 -1.0000 0.0000
vn 0.0000 1.0000 0.0000
usemtl None.003
s off
f 1/1/1 2/2/1 3/3/1 4/4/1
f 5/5/2 6/6/2 7/7/2 8/8/2
f 8/8/3 7/7/3 9/9/3 10/10/3
f 11/11/4 12/12/4 2/13/4 1/14/4
f 5/15/5 8/8/5 10/10/5 11/16/5
f 6/17/6 3/18/6 2/19/6 12/20/6
f 7/7/6 6/17/6 12/20/6 9/9/6
f 4/21/5 5/15/5 11/16/5 1/22/5
f 11/16/5 10/10/5 13/23/5 14/24/5
f 4/4/2 3/3/2 6/6/2 5/5/2
f 13/23/4 15/25/4 16/26/4 14/27/4
f 9/9/6 12/20/6 16/28/6 15/25/6
f 10/10/3 9/9/3 15/25/3 13/23/3
f 12/12/1 11/11/1 14/27/1 16/26/1
f 17/29/1 18/30/1 19/31/1 20/32/1
f 21/33/2 22/34/2 23/35/2 24/36/2
f 24/36/3 23/35/3 25/37/3 26/38/3
f 27/39/4 28/40/4 18/41/4 17/42/4
f 21/43/5 24/36/5 26/38/5 27/44/5
f 22/45/6 19/46/6 18/47/6 28/48/6
f 23/35/6 22/45/6 28/48/6 25/37/6
f 20/49/5 21/43/5 27/44/5 17/50/5
f 26/38/4 25/37/4 28/40/4 27/39/4
f 20/32/1 19/31/1 29/51/1 30/52/1
f 30/52/2 29/51/2 31/53/2 32/54/2
f 22/34/3 21/33/3 32/54/3 31/53/3
f 21/43/5 20/49/5 30/55/5 32/56/5
f 19/46/6 22/45/6 31/57/6 29/58/6
